<mxfile host="app.diagrams.net" agent="Mozilla/5.0 (Windows NT 10.0; Win64; x64) AppleWebKit/537.36 (KHTML, like Gecko) Chrome/109.0.0.0 Safari/537.36" version="24.9.1">
  <diagram name="PÃ¡gina-1" id="SmqiFDEtBOFv7ttlYhKg">
    <mxGraphModel dx="2848" dy="1913" grid="1" gridSize="10" guides="1" tooltips="1" connect="1" arrows="1" fold="1" page="1" pageScale="1" pageWidth="827" pageHeight="1169" math="0" shadow="0">
      <root>
        <mxCell id="0" />
        <mxCell id="1" parent="0" />
        <mxCell id="wIMSOwUCyfHXSS4nc9Q4-1" value="Cartao" style="swimlane;fontStyle=1;align=center;verticalAlign=top;childLayout=stackLayout;horizontal=1;startSize=26;horizontalStack=0;resizeParent=1;resizeParentMax=0;resizeLast=0;collapsible=1;marginBottom=0;whiteSpace=wrap;html=1;fillColor=#94A8B8;" vertex="1" parent="1">
          <mxGeometry x="-930" y="-120" width="250" height="330" as="geometry" />
        </mxCell>
        <mxCell id="wIMSOwUCyfHXSS4nc9Q4-2" value="&lt;div&gt;- nome: String&amp;nbsp;&lt;/div&gt;&lt;div&gt;- sobrenome: String&lt;/div&gt;&lt;div&gt;- numero: int&lt;/div&gt;&lt;div&gt;- codigo: int&lt;/div&gt;&lt;div&gt;- vencimento: LocalDate&lt;br&gt;&lt;/div&gt;" style="text;strokeColor=none;fillColor=none;align=left;verticalAlign=middle;spacingLeft=4;spacingRight=4;overflow=hidden;rotatable=0;points=[[0,0.5],[1,0.5]];portConstraint=eastwest;whiteSpace=wrap;html=1;" vertex="1" parent="wIMSOwUCyfHXSS4nc9Q4-1">
          <mxGeometry y="26" width="250" height="84" as="geometry" />
        </mxCell>
        <mxCell id="wIMSOwUCyfHXSS4nc9Q4-3" value="" style="line;strokeWidth=1;fillColor=none;align=left;verticalAlign=middle;spacingTop=-1;spacingLeft=3;spacingRight=3;rotatable=0;labelPosition=right;points=[];portConstraint=eastwest;strokeColor=inherit;" vertex="1" parent="wIMSOwUCyfHXSS4nc9Q4-1">
          <mxGeometry y="110" width="250" height="8" as="geometry" />
        </mxCell>
        <mxCell id="wIMSOwUCyfHXSS4nc9Q4-4" value="+ Cartao(nome: String, sobrenome: String, numero: int,&amp;nbsp;codigo: int, vencimento: LocalDate)&amp;nbsp;&lt;br&gt;+ getNome(): String&amp;nbsp;&lt;br&gt;+ getSobrenome(): String&amp;nbsp;&lt;br&gt;+ getNumero(): int&amp;nbsp;&lt;br&gt;+ getCodigo(): int&amp;nbsp;&lt;br&gt;+ getVencimento(): LocalDate&amp;nbsp;&lt;br&gt;+ setNome(nome: String): void&amp;nbsp;&lt;br&gt;+ setSobrenome(sobrenome: String): void&amp;nbsp;&lt;br&gt;+ setNumero(numero: int): void&amp;nbsp;&lt;br&gt;+ setCodigo(codigo: int): void&amp;nbsp;&lt;br&gt;+ setVencimento(vencimento: LocalDate): void&lt;div&gt;&lt;br&gt;&lt;/div&gt;" style="text;strokeColor=none;fillColor=none;align=left;verticalAlign=middle;spacingLeft=4;spacingRight=4;overflow=hidden;rotatable=0;points=[[0,0.5],[1,0.5]];portConstraint=eastwest;whiteSpace=wrap;html=1;" vertex="1" parent="wIMSOwUCyfHXSS4nc9Q4-1">
          <mxGeometry y="118" width="250" height="212" as="geometry" />
        </mxCell>
      </root>
    </mxGraphModel>
  </diagram>
</mxfile>
